<svg><defs><font id="iconfont" horiz-adv-x="1024"><font-face font-family="iconfont" font-weight="500" units-per-em="1024" ascent="896" descent="-128"/><glyph glyph-name="x" unicode="x" horiz-adv-x="1001" d="M281 543q-27-1-53-1h-83q-18 0-36.5-6T76 517.5t-23-32-9-45.5v-76h912v41q0 16-.5 30t-.5 18q0 13-5 29t-17 29.5-31.5 22.5-49.5 9H719v-97H281v97zm674-233v-52q0-23 .5-52t.5-58-10.5-47.5-26-30-33-16T855 50q-14-1-29.5-.5T796 50h-32l-45 128H280L236 50h-63q-20 0-45 1-25 0-41 9.5t-25.5 23T48 113t-4 30v167h911zm-792-63q-12 0-21-8.5t-9-21.5 9-21.5 21-8.5q13 0 22 8.5t9 21.5-9 21.5-22 8.5zm153-124q-8-26-14-48-5-19-10.5-37T284 13t-3-15 1-14.5 9.5-10.5 21.5-4h365q23 0 34 12t2 38q-5 13-9.5 30.5T695 84q-5 19-11 39H316zm20 375v228q0 11 2.5 23t10 21.5T369 786t34 6h188q31 0 51.5-14.5T663 725V498H336z"/><glyph glyph-name="xiala" unicode="" d="M68.29 569.39h893.195L514.887 122.791 68.291 569.389z" horiz-adv-x="1024"/><glyph glyph-name="quanbushangpin" unicode="" d="M129.53 97.337H39.699c-16.522 0-29.95-13.414-29.95-29.935 0-16.535 13.427-29.963 29.95-29.963h89.831c16.507 0 29.934 13.427 29.934 29.963 0 16.522-13.412 29.935-29.934 29.935zm868.365 0h-658.77c-16.507 0-29.934-13.414-29.934-29.935 0-16.535 13.427-29.963 29.934-29.963h658.77c16.524 0 29.95 13.427 29.95 29.963 0 16.522-13.426 29.935-29.95 29.935zM129.53 404.977H39.699c-16.522 0-29.95-13.412-29.95-29.95 0-16.535 13.427-29.934 29.95-29.934h89.831c16.507 0 29.934 13.398 29.934 29.934s-13.412 29.95-29.934 29.95zm868.365 0h-658.77c-16.507 0-29.934-13.412-29.934-29.95 0-16.535 13.427-29.934 29.934-29.934h658.77c16.524 0 29.95 13.398 29.95 29.934s-13.426 29.95-29.95 29.95zM129.53 712.618H39.699c-16.522 0-29.95-13.412-29.95-29.963 0-16.523 13.427-29.935 29.95-29.935h89.831c16.507 0 29.934 13.412 29.934 29.935 0 16.549-13.412 29.963-29.934 29.963zm209.596-59.897h658.77c16.524 0 29.95 13.412 29.95 29.948s-13.425 29.95-29.95 29.95h-658.77c-16.507 0-29.934-13.412-29.934-29.95s13.428-29.948 29.934-29.948z" horiz-adv-x="1024"/><glyph glyph-name="bangzhu1" unicode="" d="M511.83 31.019a353.152 353.152 0 1 0 0 706.261 353.152 353.152 0 0 0 0-706.261m0-73.387c235.562 0 426.538 190.976 426.538 426.539 0 235.52-190.976 426.496-426.539 426.496-235.52 0-426.496-190.976-426.496-426.496 0-235.563 190.976-426.539 426.496-426.539m111.275 627.84c25.344-21.93 38.016-52.139 38.016-90.581 0-30.806-8.021-56.576-24.064-77.227-5.504-6.827-23.21-23.253-53.205-49.45a97.579 97.579 0 0 1-26.624-32.94 85.077 85.077 0 0 1-10.112-41.813v-10.752h-67.798v10.752c0 24.534 4.267 44.587 12.672 60.16 8.022 16.939 31.872 43.094 71.595 78.592l10.752 12.032c11.819 15.19 17.75 30.592 17.75 46.208 0 21.547-6.145 38.827-18.347 51.968-12.715 12.672-30.635 18.987-53.888 18.987-28.715 0-49.366-9.088-62.038-27.221-11.434-15.232-17.109-36.736-17.109-64.598h-66.517c0 45.995 13.312 82.347 39.893 108.928 26.624 27.008 63.36 40.534 110.208 40.534 40.96 0 73.899-11.179 98.816-33.579zm-76.63-349.61c8.875-8.065 13.313-18.774 13.313-32.342 0-12.63-4.694-23.637-13.952-32.939a47.36 47.36 0 0 0-32.939-12.629c-13.099 0-24.064 4.395-32.939 13.27a43.947 43.947 0 0 0-13.312 32.298c0 13.525 4.438 24.32 13.312 32.341 8.448 8.406 19.414 12.63 32.939 12.63 13.952 0 25.13-4.224 33.579-12.63z" horiz-adv-x="1024"/><glyph glyph-name="shanchu" unicode="" d="M513.201 882.579c276.464-.276 498.718-223.228 498.163-499.552-.558-277.159-223.785-497.885-502.75-497.188-274.239.695-496.494 224.479-495.799 499.414.558 275.767 223.922 497.606 500.387 497.329zM511.255 8.848c208.771-.695 375.152 164.016 376.402 372.372 1.25 210.858-165.406 378.902-375.707 378.765-207.798 0-374.594-166.379-375.429-374.177C135.687 176.201 301.51 9.545 511.255 8.85zM759.918 322.01c-64.494 0-433.529.276-495.66.276V445.16c60.742 0 431.444-.276 495.66-.276V322.01z" horiz-adv-x="1024"/><glyph glyph-name="bangzhu" unicode="" d="M512 789.333C736 789.333 917.333 608 917.333 384S736-21.333 512-21.333 106.667 160 106.667 384 288 789.333 512 789.333M512 832C264.533 832 64 631.467 64 384S264.533-64 512-64s448 200.533 448 448-200.533 448-448 448zm0-554.667c-12.8 0-21.333 8.534-21.333 21.334S499.2 320 512 320c59.733 0 106.667 46.933 106.667 106.667S571.733 533.333 512 533.333 405.333 486.4 405.333 426.667c0-12.8-8.533-21.334-21.333-21.334s-21.333 8.534-21.333 21.334C362.667 509.867 428.8 576 512 576s149.333-66.133 149.333-149.333S595.2 277.333 512 277.333zm-21.333-128a21.333 21.333 0 1 1 42.666 0 21.333 21.333 0 1 1-42.666 0zM512 192c-12.8 0-21.333 10.667-21.333 21.333v85.334c0 12.8 8.533 21.333 21.333 21.333 10.667 0 21.333-8.533 21.333-21.333v-85.334C533.333 202.667 524.8 192 512 192z" horiz-adv-x="1024"/><glyph glyph-name="dataoverview" unicode="" d="M104.49-65.936A43.068 43.068 0 0 0 62-23.575a43.711 43.711 0 0 0 42.49 43.519h1271.862c22.756 0 42.426-19.799 42.426-43.519a42.94 42.94 0 0 0-42.426-42.36H104.49zm1148.379 899.933H228.745a42.875 42.875 0 0 1-43.326-42.296V114.5a43.068 43.068 0 0 1 43.326-42.811h1024.188c22.948 0 42.425 19.091 42.425 42.81v677.2a42.683 42.683 0 0 1-42.49 42.297zm-43.39-677.006H271.363v591.77h938.116V156.99zM621.887 423.307H517.302a11.185 11.185 0 0 1-11.25-11.121V254.89c0-6.106 5.015-11.313 11.25-11.313h104.585a11.313 11.313 0 0 1 11.12 11.313v157.296a11.056 11.056 0 0 1-11.12 11.12zM963.733 542.74H859.019a11.185 11.185 0 0 1-11.185-11.249v-276.6c0-6.107 4.886-11.314 11.185-11.314h104.714c6.042 0 10.928 5.207 10.928 11.313v276.601a11.12 11.12 0 0 1-10.928 11.25zM792.746 662.11H688.353c-6.428 0-11.442-5.078-11.442-11.12V254.955c0-6.107 5.079-11.314 11.442-11.314H792.81a11.25 11.25 0 0 1 11.056 11.314v395.97a11.25 11.25 0 0 1-11.12 11.185z" horiz-adv-x="1543"/><glyph glyph-name="Commodityinsight" unicode="" d="M41.252 526.481h726.161l76.263 286.476a40.424 40.424 0 0 0 40.375 32.183h119.028c22.479 0 39.887-17.799 39.887-40.326 0-22.43-17.408-40.765-39.887-40.765H914.77L730.501 74.703c14.189-5.12 26.38-13.312 36.863-23.893 19.261-18.87 31.062-45.251 31.062-73.825 0-29.453-11.8-55.443-31.062-74.265l-1.316-1.511A105.618 105.618 0 0 0 693.1-128c-28.77 0-55.442 11.508-73.63 30.672a102.644 102.644 0 0 0-30.866 74.264c0 20.285 5.705 39.253 15.7 55.442H296.912A104.643 104.643 0 0 0 208.115-128a104.301 104.301 0 0 0-73.971 30.672h-.39a103.96 103.96 0 0 0-30.574 74.264c0 20.285 6.193 39.253 16.335 55.978a40.57 40.57 0 0 0 5.266 80.75h532.09l26.867 100.84H100.596A41.155 41.155 0 0 0 60.465 248.1L1.658 475.72a41.155 41.155 0 0 0 39.594 50.761zm380.781 56.856h3.365v.634h1.902l.731.488h.536l1.512 1.122h.39v.536h1.024v.439h.878v.341h.731v.146l.39.342 1.122.634v.487h.682v.146h.78v.83l.342.146.683.585.487.536 150.284 150.382a24.625 24.625 0 0 1 0 34.23 24.722 24.722 0 0 1-34.23 0l-109.47-109.519V871.52a24.576 24.576 0 0 1-24.382 24.478 24.186 24.186 0 0 1-24.43-24.478V665.842l-109.665 109.52a25.405 25.405 0 0 1-34.767 0 24.869 24.869 0 0 1 0-34.231l150.43-150.382.537-.536.682-.585.342-.147.585-.39.146-.439.195-.146.83-.341v-.146l1.218-.634v-.342l.732-.146.292-.341.927-.44h.292v-.535h.927l1.901-1.122h.878l.341-.488h1.61l.34-.634h2.927l2.779-.487 2.194.487zM692.71 32.963c-1.122-.39-3.072-.39-5.12-.39v-.195h-1.024a57.929 57.929 0 0 1-33.45-16.189c-9.412-9.801-16.092-23.893-16.092-39.253 0-16.092 6.68-29.989 16.091-39.985 10.387-9.996 24.479-15.896 39.985-15.896 15.067 0 28.867 5.315 38.473 15.067l1.22.878c10.093 9.996 16.188 23.893 16.188 39.985 0 15.31-6.095 29.452-16.189 39.253A54.613 54.613 0 0 1 693.1 33.012h-.39v-.049zm-478.06-.585h-13.41a57.051 57.051 0 0 1-31.793-14.872l-.829-1.317c-10.19-9.801-16.579-23.893-16.579-39.253a55.296 55.296 0 0 1 56.076-55.881c15.507 0 29.599 5.9 39.741 15.896s16.335 23.893 16.335 39.985a54.613 54.613 0 0 1-16.335 39.253 54.077 54.077 0 0 1-33.207 16.189zm531.015 413.061H93.135l38.62-149.65h573.974v.195l39.936 149.455z" horiz-adv-x="1043"/><glyph glyph-name="Communityinsight" unicode="" d="M746.154 280.69h130.673a23.609 23.609 0 0 1 23.666 23.438 24.12 24.12 0 0 1-23.666 23.665H746.154a23.78 23.78 0 0 1-23.666-23.665 23.324 23.324 0 0 1 23.666-23.438zm0 188.472h130.673a23.893 23.893 0 0 1 23.666 23.438 24.235 24.235 0 0 1-23.666 23.836H746.154a23.609 23.609 0 1 1 0-47.274zm0-377.002h130.673a23.893 23.893 0 0 1 23.666 23.211 24.064 24.064 0 0 1-23.666 24.007H746.154a23.723 23.723 0 0 1-23.666-24.007c0-12.686 10.581-23.21 23.666-23.21zm-599.55 188.53h130.104c13.085 0 23.21 10.126 23.21 23.438a23.324 23.324 0 0 1-23.21 23.665H146.604a23.893 23.893 0 0 1-24.12-23.665c0-13.312 10.58-23.438 24.12-23.438zm599.55 377.285h130.673a24.12 24.12 0 0 1 23.666 23.154 24.235 24.235 0 0 1-23.666 23.836H746.154a23.893 23.893 0 0 1-23.666-23.836c0-12.174 10.581-23.154 23.666-23.154zm231.025 238.023H401.295c-21.675 0-39.367-17.067-39.367-38.628V510.577H46.82a39.822 39.822 0 0 1-39.31-39.424V-88.973c0-22.016 18.09-39.026 39.31-39.026h930.36a38.912 38.912 0 0 1 39.31 39.026V857.37a38.855 38.855 0 0 1-39.31 38.628zM361.928-48.867H86.586V431.73h275.342V-48.867zm575.94 0H440.663v866.301H937.87v-866.3zM501.647 92.16h131.129a23.609 23.609 0 0 1 0 47.218h-131.13a24.064 24.064 0 0 1-23.665-24.007 23.893 23.893 0 0 1 23.665-23.21zm0 188.53h131.129a23.154 23.154 0 0 1 23.21 23.438 23.666 23.666 0 0 1-23.21 23.665h-131.13a24.12 24.12 0 0 1-23.665-23.665c0-13.312 11.093-23.438 23.665-23.438zm0 188.472h131.129a23.495 23.495 0 0 1 23.21 23.438 23.78 23.78 0 0 1-23.21 23.836h-131.13a24.235 24.235 0 0 1-23.665-23.836 23.893 23.893 0 0 1 23.665-23.438zm0 188.813h131.129a23.666 23.666 0 0 1 23.21 23.154 23.836 23.836 0 0 1-23.21 23.836h-131.13a24.235 24.235 0 0 1-23.665-23.836c0-12.174 11.093-23.154 23.665-23.154zM146.604 92.16h130.104c13.085 0 23.21 10.582 23.21 23.211a23.324 23.324 0 0 1-23.21 24.007H146.604a23.609 23.609 0 0 1 0-47.218z" horiz-adv-x="1024"/><glyph glyph-name="Plotoverview" unicode="" d="M1011.727 656.31l-227.71 227.782A41.64 41.64 0 0 1 756.037 896H39.157A39.888 39.888 0 0 1 0 856.112v-943.86c0-21.623 17.971-39.01 39.157-39.01h944.59a38.792 38.792 0 0 1 39.157 39.01v716.15a42.152 42.152 0 0 1-11.177 27.907zM779.196 777.067l124.85-124.85h-124.85v124.85zM228.733-48.444H78.898v865.546h149.835V-48.444zm715.346 0H307.63v79.483h386.456A24.473 24.473 0 0 1 718.05 55v288.637c0 12.93-11.688 22.939-23.962 22.939-13.807 0-23.888-10.009-23.888-22.94V78.087H552.51v238.522a22.72 22.72 0 0 1-23.013 23.012H373.6a23.377 23.377 0 0 1-23.889-23.012V78.013h-42.079v435.914L451.548 658.72l334.734-335.976c9.935-8.986 24.838-8.986 33.824 0a24.473 24.473 0 0 1 0 33.824l-351.61 351.683a23.743 23.743 0 0 1-33.824 0L307.631 580.917v236.185h424.518v-188.7c0-13.003 10.227-23.084 23.888-23.084H944.08V-48.444zM396.757 79.986v212.733h108.778V79.985H396.757z" horiz-adv-x="1024"/><glyph glyph-name="Businessinsight" unicode="" d="M905.23 308.062c0 14.79 11.774 27.303 26.222 27.303 15.529 0 27.531-12.57 27.531-27.303V141.623a27.304 27.304 0 0 0-27.53-27.53H662.226a27.133 27.133 0 0 0-26.906 27.53v166.439c0 14.79 11.889 27.303 26.906 27.303s27.133-12.57 27.133-27.303V168.188h215.87v139.874zm117.86 16.78V-73.45H150.113v398.292a27.417 27.417 0 1 1-54.72 0v-425.88c0-14.96 12.058-26.962 27.018-26.962h927.983c14.789 0 26.791 12.002 26.791 27.02v425.822a27.133 27.133 0 0 1-26.791 27.531 27.759 27.759 0 0 1-27.304-27.53zM150.113 782.917a27.133 27.133 0 0 0-27.645-27.076 27.02 27.02 0 0 0-27.076 27.076v85.552c0 15.358 12.06 27.417 27.02 27.417h928.038c14.79 0 26.792-12.059 26.792-27.417v-85.495a26.905 26.905 0 0 0-26.792-27.076 27.474 27.474 0 0 0-27.303 27.076v58.817H150.113v-58.874zM0 715.397c0 25.03 19.966 45.109 45.051 45.109a44.368 44.368 0 0 0 44.425-45.051V438.892a44.368 44.368 0 0 0-44.425-44.938A44.823 44.823 0 0 0 0 438.834v276.564zm154.322 0V438.836a45.392 45.392 0 0 1 90.728 0v276.563a45.335 45.335 0 1 1-90.728 0zm154.778 0V438.836c0-24.858 20.136-44.937 45.222-44.937a44.937 44.937 0 0 1 45.164 44.937v276.563a44.994 44.994 0 0 1-45.164 45.05 44.937 44.937 0 0 1-45.222-45.05zm154.38 0V438.836c0-24.858 20.42-44.937 45.562-44.937a44.937 44.937 0 0 1 45.165 44.937v276.563a44.994 44.994 0 0 1-45.165 45.05 45.222 45.222 0 0 1-45.563-45.05zm155.46 0V438.836c0-24.858 20.079-44.937 44.425-44.937a45.279 45.279 0 0 1 45.562 44.937v276.563a45.279 45.279 0 0 1-45.562 45.05 44.71 44.71 0 0 1-44.426-45.05zm154.208 0V438.836c0-24.858 20.136-44.937 45.79-44.937a44.653 44.653 0 0 1 44.426 44.937v276.563a44.71 44.71 0 0 1-44.426 45.05 45.051 45.051 0 0 1-45.79-45.05zm154.948 0V438.836a45.165 45.165 0 0 1 90.216 0v276.563a45.165 45.165 0 0 1-90.216 0zm155.005 0a44.71 44.71 0 0 0 89.306 0V438.836a44.71 44.71 0 1 0-89.306 0v276.563zM487.256 308.063c0 14.79 12.06 27.303 27.133 27.303a27.304 27.304 0 0 0 26.849-27.303V-1.436c0-15.131-12.06-27.304-26.849-27.304H245.05a27.133 27.133 0 0 0-27.076 27.304v309.555c0 14.79 12.06 27.303 27.076 27.303a27.304 27.304 0 0 0 26.394-27.303V25.128h215.869v282.934h-.057z" horiz-adv-x="1173"/><glyph glyph-name="Micropicturequery" unicode="" d="M512.017 713.523a162.97 162.97 0 0 0 159.795-136.755c12.492 3.738 25.292 5.735 38.195 5.735 35.481 0 68.198-14.54 91.084-38.246 23.501-22.887 37.786-55.194 37.786-90.88 0-33.741-13.107-64.717-34.406-87.91l30.412-30.72c13.517-13.517 23.604-28.621 31.181-45.824 6.605-16.282 10.598-34.202 10.598-53.71v-38.502c0-9.779-3.788-20.582-9.625-28.876a39.424 39.424 0 0 0-27.494-16.384H807.03v-10.803c0-12.8-10.394-23.194-23.296-23.194h-543.64a23.296 23.296 0 0 0-23.296 23.194v10.803h-32.512a40.858 40.858 0 0 0-27.802 16.384 52.531 52.531 0 0 0-8.499 28.876v38.503c0 19.507 3.123 37.376 10.087 53.709h.512c12.595 31.385 37.683 53.299 60.876 76.492a128.87 128.87 0 0 0-34.662 87.91c0 35.687 14.592 67.994 37.683 90.88a128.46 128.46 0 0 0 129.177 32.512 163.379 163.379 0 0 0 160.359 136.806zm432.69-353.279H892.33a23.245 23.245 0 0 0-23.603 23.603c0 12.903 10.393 23.655 23.603 23.655h52.377a431.257 431.257 0 0 1-126.515 282.674A431.615 431.615 0 0 1 535.671 816.64v-52.633a23.552 23.552 0 0 0-23.706-23.04 23.296 23.296 0 0 0-23.603 23.04v52.633a432.281 432.281 0 0 1-282.93-126.464A434.892 434.892 0 0 1 79.224 407.502h52.224a23.552 23.552 0 1 0 0-47.258H79.224A433.92 433.92 0 0 1 205.432 77.723 429.67 429.67 0 0 1 488.413-48.69V3.33c0 13.414 10.599 23.705 23.604 23.705 12.697 0 23.705-10.291 23.705-23.706V-48.69A428.748 428.748 0 0 1 818.243 77.723a430.387 430.387 0 0 1 126.464 282.521zM512.017 896a510.566 510.566 0 0 0 361.676-150.579 508.722 508.722 0 0 0 150.476-361.574c0-141.21-57.907-269.107-150.476-362.086v-.512a510.258 510.258 0 0 0-361.676-149.247A511.18 511.18 0 0 0 150.033 21.71a511.385 511.385 0 0 0 0 723.711v.512A510.463 510.463 0 0 0 512.017 896zm0-731.186h72.908v106.803a14.336 14.336 0 0 0 13.824 14.285c8.295 0 14.592-6.81 14.592-14.285v-62.515h60.877c.512 1.024 1.024 3.481 1.024 5.785v50.023c0 67.788-44.493 98.816-88.525 143.104-22.476-11.776-47.923-18.688-74.7-18.688a159.693 159.693 0 0 0-74.906 18.739c-43.878-44.34-88.678-75.315-88.678-143.104v-50.022c0-2.304.512-4.813.512-5.786h61.696v62.515c0 7.475 6.297 14.285 13.824 14.285 8.09 0 14.49-6.81 14.49-14.285V164.865h73.062v-.051zm0 272.179a114.534 114.534 0 0 1 114.38 114.483 114.176 114.176 0 0 1-114.38 114.585 114.637 114.637 0 0 1-114.79-114.585 114.893 114.893 0 0 1 114.79-114.483zm-247.603-272.18h68.505a41.472 41.472 0 0 0-21.504 16.078 59.904 59.904 0 0 0-10.29 33.996v50.023c0 20.992 3.48 41.216 9.88 59.29a140.083 140.083 0 0 0-52.889 12.697c-20.019-19.61-45.875-39.68-56.524-65.28a102.912 102.912 0 0 1-6.708-36.403v-36.71H236.1v42.137c0 7.578 6.298 14.08 13.875 14.08 7.783 0 14.388-6.502 14.388-14.08v-75.827h.05zm87.603 361.063a80.742 80.742 0 0 1-13.722 5.478 76.646 76.646 0 0 1-24.422 3.533c-22.58 0-43.315-8.55-57.6-24.166a78.233 78.233 0 0 1-23.962-57.396c0-22.425 8.807-43.366 24.013-57.446 14.285-15.104 35.021-23.705 57.6-23.705 8.909 0 17.715.819 26.522 3.481 16.793 21.504 38.707 40.55 58.112 60.518a165.888 165.888 0 0 0-46.541 89.703zm407.295-361.062v75.827c0 7.578 6.605 14.08 14.183 14.08 7.987 0 14.49-6.502 14.49-14.08v-42.086h41.113v36.71c0 13.107-2.611 25.19-6.912 36.403a97.229 97.229 0 0 1-20.787 29.9l-35.482 35.38c-16.077-7.68-33.997-11.725-52.89-12.698 6.503-18.124 10.087-38.297 10.087-59.29v-50.02c0-12.084-3.994-24.218-10.803-33.997a41.37 41.37 0 0 0-21.197-16.077h68.198v-.051zm-87.5 361.062c-6.708-35.994-20.992-64.154-46.49-89.6 19.302-19.968 40.806-39.014 58.522-60.518 2.201-.41 7.782-2.51 9.625-2.51 5.325-.409 11.008-1.023 16.589-1.023 22.426 0 43.008 8.601 57.907 23.705 14.592 14.08 24.218 35.021 24.218 57.447 0 22.63-9.626 43.008-24.218 57.395a79.053 79.053 0 0 1-57.907 24.166c-9.114 0-17.1-1.024-24.678-3.533-5.07-1.484-8.858-3.328-13.568-5.53z" horiz-adv-x="1024"/><glyph glyph-name="Userinsightinto" unicode="" d="M379.434 895.693c136.96 0 254.069-100.481 274.636-235.088 20.976 6.805 42.566 9.823 65.436 9.823 61.445 0 116.392-24.353 156.861-64.054a224.446 224.446 0 0 0 64.362-156.76 223.32 223.32 0 0 0-59.655-151.13l52.952-52.237c23.484-23.278 40.776-49.217 52.543-78.072 12.075-29.52 18.112-59.91 18.112-93.166V9.574c0-17.293-5.014-35.558-15.502-49.269a69.836 69.836 0 0 0-47.376-29.213h-55.766v-18.06a40.725 40.725 0 0 0-40.571-40.47H213.67a41.032 41.032 0 0 0-40.52 40.47v36.478H94.004a33.971 33.971 0 0 0-8.647.87A77.152 77.152 0 0 0 35.475-17.9 100.38 100.38 0 0 0 18.08 39.964v86.053c0 41.288 7.47 80.734 22.306 117.11a299.858 299.858 0 0 0 67.175 98.486l1.996 1.995 75.412 75.873-1.893 1.893a276.887 276.887 0 0 0-81.296 196.614c0 153.126 125.295 277.705 277.654 277.705zM804.587-45.886V83.246c0 13.865 11.103 24.916 24.558 24.916 13.404 0 24.097-11.102 24.097-24.916V12.081h70.347v62.826a160.136 160.136 0 0 1-11.409 61.65v.204c-7.776 18.88-20.106 35.558-35.762 52.339l-61.342 61.138a227.874 227.874 0 0 0-90.71-22c11.511-31.976 17.19-66.152 17.19-102.323V39.861c0-20.771-6.6-41.338-17.906-57.863-9.772-12.484-21.59-22.92-36.99-27.986h117.927v.102zM654.121 573.12l-.818-2.047v-2.25h-.307l-2.2-12.382-.512-.665v-.87l-.205-.562-.153-.921A283.128 283.128 0 0 0 576.1 421.374h-.103l-2.097-1.893 77.919-77.868h.41c7.673-7.777 15.501-16.526 22.868-24.967 4.912-1.996 10.796-3.223 16.474-3.99v-.717c8.596-1.842 18.265-2.302 27.986-2.302 38.678 0 73.928 15.45 99.202 40.775a141.206 141.206 0 0 1 41.492 99.152 141.155 141.155 0 0 1-140.694 140.592c-15.195 0-28.293-3.07-42.464-6.805a191.651 191.651 0 0 1-22.972-10.232zM205.843 30.345V137.58c0 13.149 10.59 24.558 24.097 24.558 13.558 0 24.302-11.46 24.302-24.558V-6.389l.665-3.683v-35.762h249.976V137.63c0 13.149 11.306 24.558 24.2 24.558 14.17 0 24.454-11.46 24.454-24.558V30.396h105.138a23.227 23.227 0 0 1 1.892 9.619v86.054c0 30.952-5.32 59.808-16.371 85.798a225.367 225.367 0 0 1-25.683 45.994l-1.024.41h-.307l-.614.869-.204.665a274.431 274.431 0 0 1-21.386 24.404v.87l-87.077 86.514a274.533 274.533 0 0 0-128.415-31.566 273.05 273.05 0 0 0-128.314 31.566l-84.775-85.03-1.535-2.354c-22.408-22.357-39.138-45.636-50.24-72.342a229 229 0 0 1-15.656-85.798V40.015c0-3.019.819-7.316 1.996-9.619h104.88v-.05zM379.434 814.91a197.484 197.484 0 0 1-196.767-196.972 196.46 196.46 0 0 1 196.767-196.563c107.133 0 197.177 86.156 197.177 196.563A196.921 196.921 0 0 1 379.434 814.91z" horiz-adv-x="1024"/><glyph glyph-name="Smartmarketing" unicode="" d="M754.233 450.788h38.002a15.815 15.815 0 1 0 0-31.688h-38.002v-31.402H815.9a15.701 15.701 0 0 0 0-31.403h-77.54a15.815 15.815 0 0 0-15.53 15.815v125.952a15.929 15.929 0 0 0 15.53 15.474h77.54a15.815 15.815 0 1 0 0-31.516h-61.667v-31.232zM300.658 674.645h514.275c10.127 0 18.887-6.087 23.552-14.961l118.443-212.196a25.316 25.316 0 0 0 0-25.543l-119.24-213.333a26.396 26.396 0 0 0-22.755-13.483H300.658a26.51 26.51 0 0 0-26.454 26.51v426.496c0 14.564 11.89 26.51 26.454 26.51zm26.226-52.793V247.98h472.12l104.904 187.107-104.904 186.766h-472.12zm174.42-255.317a16.156 16.156 0 0 0-20.195-9.728 16.555 16.555 0 0 0-9.67 20.48l44.43 125.781c5.006 14.223 24.917 13.37 29.639 0l44.544-125.78a15.986 15.986 0 0 0-9.9-20.424 16.44 16.44 0 0 0-20.195 9.728l-7.338 21.56h-43.407l-7.907-21.617zm29.47 83.797l-10.582-30.264h21.22l-10.639 30.264zm-67.13 29.98c0-8.76-7.566-15.871-16.1-15.871s-16.156 7.111-16.156 15.872c0 .17 0 .853-.34 1.024l-.285.284c-.114 0-.455.399-.683.399h-42.44c-.454 0-1.308-.399-1.421-.683a2.276 2.276 0 0 1-.57-1.024v-27.99c0-.398.342-.91.57-1.194.113-.17 1.024-.341 1.422-.341h42.439l1.024-.228a32.654 32.654 0 0 0 22.3-9.671c5.974-5.746 10.24-14.222 10.24-23.495v-27.99a33.678 33.678 0 0 0-33.564-33.052h-42.44a34.588 34.588 0 0 0-23.779 9.444 34.304 34.304 0 0 0-9.898 23.552c0 8.59 7.225 15.872 16.1 15.872s15.53-7.282 15.53-15.872c0-.342.341-.74.569-1.195.455-.114 1.024-.398 1.422-.398h42.496c.341 0 .683.284 1.024.398.341.512.341.91.341 1.195v28.046c0 .569 0 .796-.341 1.08-.341.285-.683.626-1.024.626h-43.975a35.271 35.271 0 0 0-22.244 9.558 34.418 34.418 0 0 0-9.898 23.722v27.933c0 9.102 3.982 17.75 9.898 23.666h.114a35.67 35.67 0 0 0 23.666 9.557h42.439a32.996 32.996 0 0 0 22.244-8.59l1.137-.967a33.963 33.963 0 0 0 10.183-23.666zm234.44-92.614a15.929 15.929 0 0 0 15.872-15.588 15.758 15.758 0 0 0-15.872-15.815h-77.37a15.929 15.929 0 0 0-16.099 15.815v125.952c0 8.022 7.225 15.474 16.1 15.474 8.42 0 15.985-7.452 15.985-15.474V387.755h61.384v-.057zM59.847 896h1135.275a47.218 47.218 0 0 0 46.649-47.445V32.939a47.673 47.673 0 0 0-46.65-47.844H674.476v-51.712l-.455-4.835h262.826c15.986 0 27.99-12.06 27.99-28.047a27.876 27.876 0 0 0-27.99-28.444h-619.52a28.33 28.33 0 0 0-27.99 28.444 27.876 27.876 0 0 0 27.99 28.047h263.111l-.796 4.835v51.712H59.847A47.844 47.844 0 0 0 12.288 32.94v815.559c0 26.34 21.22 47.502 47.56 47.502zm1002.951-683.577c25.998 0 47.104-21.22 47.104-46.876a46.876 46.876 0 0 0-47.104-47.503 47.047 47.047 0 0 0-47.786 47.503c0 25.657 21.105 46.876 47.786 46.876zm84.537 589.54H106.724V80.043h1040.611v721.92z" horiz-adv-x="1251"/><glyph glyph-name="Addnotes" unicode="" d="M512 896c141.531 0 269.019-57.418 361.398-150.09A510.83 510.83 0 0 0 1024 384.22 510.244 510.244 0 0 0 873.4 22.6l-2.853-2.999A510.683 510.683 0 0 0 512-128 508.489 508.489 0 0 0 150.528 22.601 509.293 509.293 0 0 0 0 384.219c0 141.166 57.783 269.166 150.528 361.764l2.706 3A509.366 509.366 0 0 0 512 895.998zm-57.783-264.924V441.344h-189.66a57.27 57.27 0 0 1-56.466-57.198c0-31.159 24.869-57.051 56.467-57.051h189.659V137.07c0-31.89 26.039-56.54 57.783-56.54a56.466 56.466 0 0 1 56.466 56.54v190.098h190.83a57.344 57.344 0 0 1 56.466 57.051 57.93 57.93 0 0 1-56.467 57.198h-190.83v189.659A56.905 56.905 0 0 1 512 688.054a57.27 57.27 0 0 1-57.783-56.978zm338.285 34.67A393.8 393.8 0 0 1 512 782.262a396.434 396.434 0 0 1-279.04-114.395l-2.926-2.121a398.116 398.116 0 0 1-115.712-281.527 400.091 400.091 0 0 1 115.712-281.892A400.823 400.823 0 0 1 512-13.751 395.483 395.483 0 0 1 791.04 99.694l1.462 2.56a397.02 397.02 0 0 1 117.175 281.892c0 109.495-44.617 209.993-117.175 281.6z" horiz-adv-x="1024"/><glyph glyph-name="details" unicode="" d="M740.718 159.525h-457.29a23.479 23.479 0 0 1-23.99-23.04c0-13.24 10.898-23.845 23.99-23.845h457.29a23.552 23.552 0 0 1 23.99 23.845c0 13.019-10.166 23.04-23.99 23.04zm-481.28 309.174c0-12.946 10.898-23.552 23.99-23.552h457.29a23.406 23.406 0 0 1 23.99 23.552 23.698 23.698 0 0 1-23.99 23.552h-457.29a24.137 24.137 0 0 1-23.99-23.552zm689.444 130.853l-285.476 285.11A37.595 37.595 0 0 1 636.27 896H169.18c-28.526 0-54.711-11.922-74.167-30.94A103.205 103.205 0 0 1 64 790.675V-21.943c0-29.038 12.069-56.174 31.013-75.044h.073C114.469-116.005 140.654-128 169.179-128h685.642c28.16 0 54.125 11.85 73.142 29.989l1.024 1.682C948.005-78.117 960-51.054 960-21.943v593.92a39.717 39.717 0 0 1-11.118 27.575zm-289.426 177.81L841.728 595.53H701.586a40.594 40.594 0 0 0-29.11 12.508l-1.025 1.024a43.081 43.081 0 0 0-11.995 29.037v139.264zm221.55-799.305a31.232 31.232 0 0 0-7.168-19.236 28.16 28.16 0 0 0-19.017-7.68H169.179a27.136 27.136 0 0 0-18.505 7.68h.512a27.502 27.502 0 0 0-8.045 19.236v812.617c0 7.315 2.998 13.97 8.045 18.871a24.357 24.357 0 0 0 17.993 7.46h443.1v-178.98c0-23.99 9.874-46.007 25.161-62.025l1.024-1.463c16.018-16.091 39.131-26.697 63.122-26.697h179.42V-21.943zM740.718 326.363h-457.29a24.357 24.357 0 0 1-23.99-24.43 24.137 24.137 0 0 1 23.99-23.112h457.29c13.824 0 23.99 10.971 23.99 23.113a23.845 23.845 0 0 1-23.99 24.43z" horiz-adv-x="1024"/><glyph glyph-name="Cellnumber" unicode="" d="M749.373 280.759h132.773c12.708 0 23.902 10.037 23.902 23.167 0 12.953-11.194 23.858-23.902 23.858H749.373c-13.265 0-23.902-10.905-23.902-23.858 0-13.108 10.637-23.167 23.902-23.167zm0 188.144h132.773c12.708 0 23.902 10.816 23.902 23.768 0 12.997-11.194 23.346-23.902 23.346H749.373c-13.265 0-23.902-10.349-23.902-23.346 0-12.952 10.637-23.768 23.902-23.768zm0-376.912h132.773c12.708 0 23.902 10.816 23.902 23.079 0 13.776-11.194 23.99-23.902 23.99H749.373a23.59 23.59 0 0 1-23.902-23.99c0-12.263 10.637-23.079 23.902-23.079zM141.075 280.76h131.95c13.531 0 23.724 10.037 23.724 23.167 0 12.953-10.193 23.858-23.724 23.858h-131.95c-13.71 0-24.392-10.905-24.392-23.858 0-13.108 10.683-23.167 24.392-23.167zm608.298 377.045h132.773c12.708 0 23.902 10.95 23.902 23.034 0 12.952-11.194 23.946-23.902 23.946H749.373c-13.265 0-23.902-10.994-23.902-23.946 0-12.062 10.637-23.034 23.902-23.034zm234.367 237.95H399.679c-22.189 0-40.015-17.047-40.015-38.857V510.676H40.014C18.317 510.676 0 492.67 0 470.906V-89.009C0-110.997 18.316-128 40.015-128H983.74c22.166 0 39.992 17.003 39.992 38.99v945.908c0 21.81-17.826 38.857-39.992 38.857zM359.664-48.972H80.207v480.71h279.457v-480.71zm584.374 0H439.382V816.95h504.656V-48.972zM501.273 91.99h132.952c13.064 0 23.724 10.816 23.724 23.079 0 13.776-10.66 23.99-23.724 23.99H501.273c-12.708 0-23.924-10.214-23.924-23.99 0-12.263 11.216-23.079 23.924-23.079zm0 188.768h132.952c13.064 0 23.724 10.037 23.724 23.167 0 12.953-10.66 23.858-23.724 23.858H501.273c-12.708 0-23.924-10.905-23.924-23.858 0-13.108 11.216-23.167 23.924-23.167zm0 188.144h132.952c13.064 0 23.724 10.816 23.724 23.768 0 12.997-10.66 23.346-23.724 23.346H501.273c-12.708 0-23.924-10.349-23.924-23.346 0-12.952 11.216-23.768 23.924-23.768zm0 188.901h132.952c13.064 0 23.724 10.95 23.724 23.034a24.035 24.035 0 0 1-23.724 23.946H501.273c-12.708 0-23.924-10.994-23.924-23.946 0-12.062 11.216-23.034 23.924-23.034zM141.075 91.991h131.95c13.531 0 23.724 10.816 23.724 23.079 0 13.776-10.193 23.99-23.724 23.99h-131.95c-13.71 0-24.392-10.214-24.392-23.99 0-12.263 10.683-23.079 24.392-23.079z" horiz-adv-x="1024"/><glyph glyph-name="Greendown" unicode="" d="M434.816 818.624c0 43.648 33.664 77.312 76.8 77.312s77.888-33.664 77.888-77.312V137.216l163.136 163.2a76.8 76.8 0 0 0 109.568 0c30.72-29.76 30.72-78.848 0-109.632L567.68-103.296l-.96-1.024-3.52-4.48-3.456-2.432a76.8 76.8 0 0 0-98.688 2.432l-4.48 4.48L160.96 190.72a78.592 78.592 0 0 0 0 109.632 76.224 76.224 0 0 0 109.12 0l164.672-163.2v681.472h.064z" horiz-adv-x="1024"/><glyph glyph-name="Redup" unicode="" d="M435.072-51.136c0-42.112 33.216-76.864 76.416-76.864 43.712 0 77.888 34.752 77.888 76.864v682.175l163.776-163.2c30.656-30.336 79.36-30.336 110.08 0a77.632 77.632 0 0 1 0 109.12L568.064 872.191l-1.024 1.408-3.904 3.072-3.52 1.984c-30.208 23.296-68.416 23.296-97.216-.96l-5.504-4.096-296.128-296.576a77.824 77.824 0 0 1 0-109.12 77.44 77.44 0 0 1 109.632 0l164.736 163.2v-682.24h-.064z" horiz-adv-x="1024"/><glyph glyph-name="Returnsthenumber" unicode="" d="M576.431 737.881c9.417-9.84 9.417-24.932 0-34.014-9.683-9.84-24.486-9.84-34.237 0L434.986 812.232V607.21c0-13.535-10.64-24.554-23.975-24.554-13.178 0-23.396 10.997-23.396 24.554v205.022l-107.72-108.365c-9.528-9.84-24.487-9.84-33.748 0-9.171 9.082-9.171 24.175 0 34.014l147.79 150.55h.49l.534 1.291.69.557c.534.49 1.336 1.068 2.582 2.048l1.336.49h.467A19.523 19.523 0 0 0 410.99 896c4.363 0 8.192-1.069 11.754-3.206l1.58-.49c.957-.979 2.026-1.535 3.005-2.047v-.557l.468-1.291h.556l148.08-150.528zM39.923 526.336c-3.562 0-6.612-.579-10.44-1.358-20.681-5.387-33.882-27.714-28.116-49.13L58.533 248.12c3.406-18.699 19.968-33.525 39.602-33.525H670.26l-26.045-100.82H122.154a40.07 40.07 0 0 1-39.869-40.358c0-20.703 14.826-37.821 34.727-40.47-10.708-16.696-15.783-35.907-15.783-55.92 0-29.34 11.197-55.43 29.852-74.35A100.975 100.975 0 0 1 203.584-128c28.806 0 54.317 11.687 72.704 30.697a104.426 104.426 0 0 1 30.386 74.352c0 19.99-5.632 39.223-15.85 55.34h301.902a103.535 103.535 0 0 1-15.872-55.34c0-29.34 11.554-55.43 29.941-74.352A102.89 102.89 0 0 1 679.967-128c27.603 0 53.159 11.22 71.168 29.095l1.87 1.602A106.407 106.407 0 0 1 782.79-22.95a106.407 106.407 0 0 1-29.785 73.772 107.008 107.008 0 0 1-36.709 23.953l181.582 689.174h85.972a40.426 40.426 0 0 1 40.18 40.781A39.936 39.936 0 0 1 983.85 845H866.758c-18.855 0-35.417-13.467-38.734-32.189L752.448 526.36H39.923v-.023zm690.888-81.14l-38.6-149.193-.424-.311H128.766l-37.71 149.481H730.81v.022zm-51.557-412.25h.713c15.093 0 29.161-6.3 38.867-16.695a54.984 54.984 0 0 0 16.562-39.224 55.875 55.875 0 0 0-16.562-40.047l-1.113-.779c-9.661-9.906-23.24-15.093-37.754-15.093-15.249 0-29.095 5.743-38.756 15.872a55.14 55.14 0 0 0-16.34 40.047c0 15.316 6.1 29.34 16.34 39.224 8.192 9.35 19.344 14.559 32.411 16.14h1.27v.31c1.313 0 3.049 0 4.362.246zm-468.791-.556c12.221-1.558 23.44-6.79 32.122-16.139 9.684-9.862 16.273-23.908 16.273-39.224 0-16.183-6.611-29.918-16.273-40.047-9.66-10.129-23.707-15.872-39.023-15.872a55.808 55.808 0 0 0-39.045 15.872 57.21 57.21 0 0 0-15.872 40.047c0 15.316 6.21 29.34 15.872 39.224l.957 1.135c8.214 8.215 19.367 13.446 31.9 15.004h13.089z" horiz-adv-x="1024"/><glyph glyph-name="Totalorders" unicode="" d="M909.357 736.367H803.795v21.193c0 12.288-10.35 22.55-23.084 22.55H657.453a150.706 150.706 0 0 1-40.137 71.346A150.706 150.706 0 0 1 510.241 896c-41.783 0-79.16-16.985-106.985-44.544a148.992 148.992 0 0 1-40.114-71.346H239.86c-12.733 0-22.595-10.262-22.595-22.55v-21.193H111.238c-21.393 0-38.089-17.764-38.089-38.355V-89.444c0-21.46 16.696-38.556 38.089-38.556h798.119c21.392 0 38.6 17.119 38.6 38.556v787.456c0 20.591-17.208 38.355-38.6 38.355zM435.912 818.8c18.989 19.456 45.546 30.72 74.33 30.72 28.894 0 55.451-11.264 74.417-30.72a109.145 109.145 0 0 0 25.044-38.69H411.648a98.037 98.037 0 0 0 24.264 38.69zM263.08 734.431h494.392v-73.038H263.079v73.038zm608.1-785.23H149.927v709.966h67.34v-20.725c0-13.29 9.838-23.13 22.594-23.13h540.828c12.733 0 23.084 9.84 23.084 23.13v20.725h67.384V-50.8zM631.875 285.807v.29c-15.338 14.536-35.529 23.797-57.878 23.797h-37.644v146.12h37.644c9.037 0 17.096-3.206 22.35-9.327h.734l-.735-.223c6.078-5.788 9.573-13.735 9.573-22.26 0-13.736 11.13-25.49 25.444-25.49 13.223 0 24.353 11.732 24.353 25.49 0 22.26-8.949 42.94-23.819 57.543a83.122 83.122 0 0 1-57.878 24.154h-37.643v27.046a24.82 24.82 0 0 1-49.575 0v-27.046h-37.465c-22.283 0-42.964-9.55-58.346-24.154a82.588 82.588 0 0 1-23.374-57.544v-81.875c0-22.706 8.815-43.097 23.374-57.7 15.382-14.737 35.573-24.31 57.923-24.31H486.8V107.543h-37.465a32.723 32.723 0 0 0-22.773 8.971 33.146 33.146 0 0 0-9.55 23.352c0 13.601-11.13 24.643-24.866 24.643-13.89 0-24.531-11.042-24.531-24.643 0-22.773 8.815-43.52 23.374-58.056a83.167 83.167 0 0 1 58.346-24.153H486.8V30.609c0-13.802 10.84-24.932 24.932-24.932 13.512 0 24.643 11.13 24.643 24.932v27.047h37.643a81.697 81.697 0 0 1 57.878 23.93v.223a80.874 80.874 0 0 1 23.82 58.056v88.086c0 22.573-8.95 42.964-23.82 58.123v-.267zm-145.119 24.087h-37.888c-9.105 0-16.495 3.984-22.35 9.75-5.788 6.21-9.55 13.868-9.55 22.706v81.875c0 8.526 3.762 16.473 9.55 22.261v.223c5.855 6.122 13.802 9.327 22.773 9.327h37.465V309.894zM605.92 139.887c0-9.26-3.473-17.497-9.573-23.351v.289c-5.253-5.855-13.312-9.26-22.35-9.26h-37.643V260.34h37.644c9.037 0 17.096-3.74 22.35-9.684 6.077-6.21 9.572-13.735 9.572-22.728v-88.042z" horiz-adv-x="1024"/><glyph glyph-name="list" unicode="" d="M984.497 422.715H787.102v434.058a38.597 38.597 0 0 1-38.991 38.518H275.85a38.4 38.4 0 0 1-39.227-38.518V422.715H38.715A38.912 38.912 0 0 1 0 384V-89.285c0-21.11 17.369-38.006 38.715-38.006h945.782c21.622 0 39.503 16.896 39.503 38.006V384a39.385 39.385 0 0 1-39.503 38.715zM314.33 818.255h395.067v-395.54H314.329v395.54zm158.68-868.51H77.942v395.54H473.01v-395.54zm473.049 0h-395.54v395.54h395.54v-395.54zM537.836 482.62h-48.64v183.296a168.133 168.133 0 0 0-62.818-36.903v44.11c12.682 4.136 26.466 12.052 41.354 23.67 14.887 11.58 25.088 25.128 30.64 40.567h39.464V482.62zM348.318 64.394V19.259H177.822c1.85 17.093 7.404 33.28 16.62 48.522 9.216 15.32 27.45 35.564 54.705 60.85 21.937 20.44 35.367 34.264 40.33 41.55 6.695 10.043 10.043 19.968 10.043 29.775 0 10.83-2.914 19.18-8.743 25.009-5.83 5.829-13.864 8.783-24.143 8.783-10.161 0-18.235-3.072-24.222-9.177s-9.452-16.266-10.397-30.444l-48.483 4.765c2.875 26.782 11.934 45.962 27.176 57.66 15.242 11.618 34.264 17.447 57.107 17.447 25.049 0 44.702-6.774 59.038-20.244 14.297-13.548 21.465-30.326 21.465-50.373 0-11.421-2.048-22.292-6.144-32.61a131.663 131.663 0 0 0-19.496-32.453c-5.868-7.483-16.502-18.314-31.862-32.374s-25.088-23.434-29.184-28.003a83.102 83.102 0 0 1-9.925-13.548h96.61zm306.215 22.134l47.065 5.75c1.496-12.012 5.553-21.189 12.13-27.49a33.004 33.004 0 0 1 23.867-9.531c10.043 0 18.51 3.82 25.364 11.421 6.892 7.601 10.319 17.88 10.319 30.799 0 12.249-3.27 21.937-9.847 29.066s-14.611 10.712-24.064 10.712c-6.222 0-13.666-1.181-22.291-3.662l5.356 39.66c13.154-.355 23.198 2.481 30.13 8.586a30.366 30.366 0 0 1 10.397 24.143c0 8.507-2.52 15.32-7.601 20.4s-11.816 7.602-20.244 7.602a29.38 29.38 0 0 1-21.307-8.625c-5.869-5.79-9.453-14.218-10.713-25.325l-44.82 7.602c3.112 15.36 7.799 27.608 14.06 36.824 6.302 9.138 15.085 16.384 26.31 21.622 11.264 5.278 23.867 7.877 37.848 7.877 23.867 0 43.048-7.6 57.462-22.843 11.895-12.445 17.802-26.545 17.802-42.22 0-22.252-12.17-40.054-36.51-53.327 14.534-3.111 26.152-10.122 34.856-20.913 8.744-10.87 13.076-23.946 13.076-39.306 0-22.252-8.113-41.275-24.38-56.91-16.265-15.715-36.548-23.553-60.77-23.553-22.96 0-41.984 6.578-57.107 19.81-15.203 13.234-23.946 30.485-26.388 51.831zm329.964 336.187H787.102v434.058a38.597 38.597 0 0 1-38.991 38.518H275.85a38.4 38.4 0 0 1-39.227-38.518V422.715H38.715A38.912 38.912 0 0 1 0 384V-89.285c0-21.11 17.369-38.006 38.715-38.006h945.782c21.622 0 39.503 16.896 39.503 38.006V384a39.385 39.385 0 0 1-39.503 38.715zM314.33 818.255h395.067v-395.54H314.329v395.54zm158.68-868.51H77.942v395.54H473.01v-395.54zm473.049 0h-395.54v395.54h395.54v-395.54zM537.836 482.62h-48.64v183.296a168.133 168.133 0 0 0-62.818-36.903v44.11c12.682 4.136 26.466 12.052 41.354 23.67 14.887 11.58 25.088 25.128 30.64 40.567h39.464V482.62zM348.318 64.394V19.259H177.822c1.85 17.093 7.404 33.28 16.62 48.522 9.216 15.32 27.45 35.564 54.705 60.85 21.937 20.44 35.367 34.264 40.33 41.55 6.695 10.043 10.043 19.968 10.043 29.775 0 10.83-2.914 19.18-8.743 25.009-5.83 5.829-13.864 8.783-24.143 8.783-10.161 0-18.235-3.072-24.222-9.177s-9.452-16.266-10.397-30.444l-48.483 4.765c2.875 26.782 11.934 45.962 27.176 57.66 15.242 11.618 34.264 17.447 57.107 17.447 25.049 0 44.702-6.774 59.038-20.244 14.297-13.548 21.465-30.326 21.465-50.373 0-11.421-2.048-22.292-6.144-32.61a131.663 131.663 0 0 0-19.496-32.453c-5.868-7.483-16.502-18.314-31.862-32.374s-25.088-23.434-29.184-28.003a83.102 83.102 0 0 1-9.925-13.548h96.61zm306.215 22.134l47.065 5.75c1.496-12.012 5.553-21.189 12.13-27.49a33.004 33.004 0 0 1 23.867-9.531c10.043 0 18.51 3.82 25.364 11.421 6.892 7.601 10.319 17.88 10.319 30.799 0 12.249-3.27 21.937-9.847 29.066s-14.611 10.712-24.064 10.712c-6.222 0-13.666-1.181-22.291-3.662l5.356 39.66c13.154-.355 23.198 2.481 30.13 8.586a30.366 30.366 0 0 1 10.397 24.143c0 8.507-2.52 15.32-7.601 20.4s-11.816 7.602-20.244 7.602a29.38 29.38 0 0 1-21.307-8.625c-5.869-5.79-9.453-14.218-10.713-25.325l-44.82 7.602c3.112 15.36 7.799 27.608 14.06 36.824 6.302 9.138 15.085 16.384 26.31 21.622 11.264 5.278 23.867 7.877 37.848 7.877 23.867 0 43.048-7.6 57.462-22.843 11.895-12.445 17.802-26.545 17.802-42.22 0-22.252-12.17-40.054-36.51-53.327 14.534-3.111 26.152-10.122 34.856-20.913 8.744-10.87 13.076-23.946 13.076-39.306 0-22.252-8.113-41.275-24.38-56.91-16.265-15.715-36.548-23.553-60.77-23.553-22.96 0-41.984 6.578-57.107 19.81-15.203 13.234-23.946 30.485-26.388 51.831z" horiz-adv-x="1024"/><glyph glyph-name="Totalsales" unicode="" d="M873.94 745.916A509.773 509.773 0 0 1 511.845 896a506.3 506.3 0 0 1-360.96-150.083h-.934C56.967 653.89-.021 525.846-.021 383.821a506.434 506.434 0 0 1 149.972-360.96C242.979-70.878 370.11-128 511.845-128c141.223 0 269.2 57.121 361.271 150.862h.824A506.701 506.701 0 0 1 1024 383.844c0 142.024-57.032 270.068-150.06 362.072zM817.998 77.957v-.089C739.93-.912 631.831-48.952 511.845-48.952c-119.83 0-227.929 48.04-305.908 126.82l-.802.09A431.883 431.883 0 0 0 79.05 383.843c0 120.119 47.95 228.262 126.085 306.286l.802.757c77.98 78.136 186.078 126.242 305.908 126.242 119.986 0 228.085-48.106 306.153-126.242v-.757c79.026-78.024 126.954-186.145 126.954-306.286 0-118.985-47.928-227.751-126.954-305.887zM576.09 566.961c19.946 0 35.84-16.028 35.84-35.929 0-13.022 10.173-23.196 24.064-23.196 12.867 0 23.04 10.174 23.04 23.196 0 45.1-37.087 82.989-82.966 82.989h-40.181v39.023c0 13.868-10.93 23.908-24.064 23.908-12.89 0-23.708-10.04-23.708-23.908V614.02h-40.292c-45.969 0-82.966-37.866-82.966-82.989V447.02c0-23.085 9.171-43.988 24.153-58.168 14.848-14.96 35.06-24.798 57.967-24.798h41.138v-162.17h-40.292c-10.017 0-18.922 3.25-25.756 10.039v.134a35.105 35.105 0 0 0-10.017 25.088c0 12.866-10.196 23.685-23.218 23.685-13.713 0-23.953-10.819-23.953-23.685 0-23.085 9.171-43.253 24.153-58.992 15.004-14.224 35.974-24.13 58.813-24.13h40.292v-39.046c0-13 10.819-23.04 23.708-23.04 13.134 0 24.064 10.04 24.064 23.04v39.046h40.18c46.86 0 82.967 36.997 82.967 83.122v90.957a82.988 82.988 0 0 1-24.153 58.925c-15.026 15.026-35.884 24.91-58.813 24.91h-40.181v155.046h40.18v-.022zm-87.953-155.047H447c-9.171 0-18.076 4.007-24.91 9.996a35.372 35.372 0 0 0-10.017 25.088v84.012c0 19.923 15.894 35.929 35.773 35.929h40.292V411.914zm87.953-47.883c9.928 0 18.988-4.118 25.822-10.128 5.989-6.834 10.018-15.783 10.018-25.823v-90.958a35.617 35.617 0 0 0-35.84-35.26h-40.181v162.17h40.18z" horiz-adv-x="1024"/><glyph glyph-name="Brandanalysis" unicode="" d="M260.86 580.071a95.437 95.437 0 1 1 54.996 55.068l-141.73 141.656a38.833 38.833 0 1 1-54.994-54.995L260.86 580.071zm722.542-157.16L550.755 855.558a138.219 138.219 0 0 1-195.189 0l-55.287-55.214.365-.439a36.639 36.639 0 0 1 51.778-51.631l.219-.22 55.288 55.215a64.063 64.063 0 0 0 90.463 0L931.04 370.622a64.063 64.063 0 0 0 0-90.464L615.77-35.112a64.063 64.063 0 0 0-90.464 0L92.73 397.533a64.063 64.063 0 0 0 0 90.464l55.214 55.288-.219.22a36.639 36.639 0 0 1-51.631 51.63l-.512.512-55.214-55.287a138.219 138.219 0 0 1 0-195.189L473.016-87.475a138.219 138.219 0 0 1 195.188 0l315.27 315.27a138 138 0 0 1-.072 195.116z" horiz-adv-x="1024"/><glyph glyph-name="Categoryanalysis" unicode="" d="M536.942-111.982L899.657 253.44s32.768 28.014 32.768 68.315v224.842l-44.178-25.381V400.091s2.414-41.764-49.225-89.746c-47.25-46.738-360.96-362.715-360.96-362.715l58.88-59.612zm102.4 672.33s72.192 315.026 215.698 319.487c141.897 4.462 172.251-104.52 168.667-172.91-4.315-81.554-84.26-142.701-135.46-152.21 0 41.034.22 57.71.22 57.71s83.675 22.528 83.894 96.402c.22 57.125-31.232 131.292-117.321 121.856-101.595-11.264-174.08-298.861-174.08-298.861l-15.067-15.287-26.551 43.812zm149.796 163.254h39.863V411.43c.951-26.624-30.281-59.027-30.281-59.027l-461.75-460.58L0 234.422S410.697 645.56 456.119 691.274c32.183 32.33 53.028 32.33 53.028 32.33h240.86L694.93 583.386l5.852-27.136c2.34-10.678 1.536-28.891 1.536-28.891a53.175 53.175 0 0 0-51.566-40.74 55.37 55.37 0 0 0-54.272 54.564c0 15.067 16.677 46.08 42.057 51.273l15.58 51.346c-68.096-14.043-104.302-57.856-104.302-103.862 0-56.54 45.568-102.4 101.815-102.4s101.815 45.787 101.815 102.4c-1.244 20.04-3.146 23.917-9.875 44.617-5.485 18.285 27.356 97.28 27.356 97.28l18.212 41.764z" horiz-adv-x="1024"/><glyph glyph-name="overviewofthesale" unicode="" d="M680.814 371.858a95.89 95.89 0 0 1-103.497-95.89c0-53.175 42.934-96.256 95.89-96.256s95.963 43.154 95.963 96.256c0 28.16-12.215 54.857-33.5 73.143l126.392 213.358-55.004 32.694-130.78-220.525 4.536-2.78zm24.43-95.89a32.183 32.183 0 0 0-64.074-.073 32.037 32.037 0 1 0 64.073.073zm223.743 353.06c52.956 0 95.89 43.155 95.89 96.257s-42.934 96.256-95.89 96.256-95.89-43.155-95.89-96.256 42.935-96.256 95.89-96.256zm0 128.44a32.183 32.183 0 0 0-.219-64.074 32.11 32.11 0 0 0 .22 64.073zm32.037-332.874V-63.049H178.322a31.963 31.963 0 0 1-31.378-32.402c0-17.994 14.117-32.549 31.451-32.549h814.007a32.037 32.037 0 0 1 31.379 32.549v520.045c0 17.92-14.044 32.549-31.379 32.549s-31.305-14.629-31.378-32.549zM193.829 211.822c0 18.285-5.047 35.547-14.044 50.176l112.128 166.546-52.955 35.986-109.056-161.938a96.183 96.183 0 1 1-31.964-187.026c52.956 0 95.817 43.154 95.89 96.256zm-95.89-32.11c-13.166.146-25.016 8.411-29.697 20.846a31.89 31.89 0 0 0 44.69 39.57l5.779-3.877a32.256 32.256 0 0 0-20.773-56.539zm255.707 449.317c-52.956 0-95.964-43.155-95.964-96.183 0-53.175 42.935-96.33 95.89-96.33 20.554 0 39.644 6.657 55.223 17.628L559.91 327.168l43.593 50.176L446.61 509.147a96.183 96.183 0 0 1-92.964 119.882zm30.94-104.302l-18.872-21.797a31.963 31.963 0 1 0 18.871 21.797zM34.303 457.143c18.505 0 33.426 14.043 33.426 31.378v344.722H771c18.505 0 33.5 14.117 33.5 31.379s-14.995 31.451-33.5 31.451H34.377c-18.651 0-33.572-14.116-33.572-31.451v-376.1c0-17.263 14.994-31.38 33.499-31.38z" horiz-adv-x="1024"/><glyph glyph-name="Itemanalysis" unicode="" d="M780.946 670.647a51.566 51.566 0 0 1-51.712-51.2c0-15.287 10.387-30.72 20.7-40.96-25.893-107.52-119.004-184.32-232.814-184.32-113.737 0-211.968 81.993-232.74 184.393 10.386 10.24 20.699 25.6 20.699 40.96 0 30.72-25.893 51.2-51.712 51.2s-51.712-25.6-51.712-51.2c0-20.48 10.313-35.84 25.892-46.08 0 0 5.12 0 5.12-5.12 20.7-138.24 144.823-240.64 289.646-240.64 144.75 0 263.68 102.4 289.573 240.64 0 0 5.193 0 5.193 5.12a53.687 53.687 0 0 1 25.892 46.08c-10.313 30.72-36.205 51.127-62.025 51.127zM905.07 896H118.93C51.712 896 0 844.727 0 778.167v-788.48C0-76.873 51.712-128 118.93-128h786.14C972.288-128 1024-76.873 1024-10.313v788.48C1024 844.727 972.288 896 905.07 896zm46.519-906.313a46.08 46.08 0 0 0-46.52-46.08H118.93a46.08 46.08 0 0 0-46.592 46.08v788.48c0 25.6 20.7 46.08 46.592 46.08h786.14a46.08 46.08 0 0 0 46.519-46.08v-788.48z" horiz-adv-x="1024"/><glyph glyph-name="touxiang" unicode="" d="M511.936 859.328c-261.12 0-472.768-212.8-472.768-475.328S250.88-91.328 511.936-91.328c261.248 0 472.896 212.8 472.896 475.328S773.12 859.328 511.936 859.328zm-2.816-115.392c88.96 0 161.024-72.128 161.024-161.024 0-89.024-72.064-161.088-161.024-161.088s-161.024 72.064-161.024 161.088c0 88.896 72.064 161.024 161.024 161.024zM227.328 68.864c-1.664 164.992 79.04 267.584 180.224 307.84l103.936-173.12L620.8 372.8c97.536-42.624 175.232-143.872 176.896-303.936-179.392-71.232-368.64-76.416-570.368 0z" horiz-adv-x="1024"/><glyph glyph-name="Thecrowdmanagement" unicode="" d="M630.233 896c137.53 0 256.157-100.352 276.873-235.284 20.796 6.774 42.772 10.398 66.167 10.398a223.705 223.705 0 0 0 157.696-65.379c40.408-39.305 65.3-94.838 65.3-156.357a218.978 218.978 0 0 0-60.653-151.079l53.563-52.933c23.395-22.922 40.96-49.546 52.775-77.903 12.525-28.83 18.354-59.707 18.354-92.79V8.428c0-16.62-5.278-35.288-15.754-49.152a64.197 64.197 0 0 0-47.734-28.593c-1.34-.315-3.151-.315-4.49-.315h-51.436v-18.51a40.172 40.172 0 0 0-40.96-39.858H161.162c-23 0-41.827 17.172-41.827 39.857v18.511H68.057c-1.418 0-3.151 0-4.884.315a65.536 65.536 0 0 0-47.734 28.593A87.276 87.276 0 0 0 0 8.428v66.245c0 33.083 6.144 63.96 18.353 92.79C40.41 220.948 84.047 258.127 124.377 298.3a218.427 218.427 0 0 0-60.023 151.08c0 61.518 24.892 117.05 65.221 156.356a223.626 223.626 0 0 0 157.696 65.379c22.686 0 44.82-3.624 65.851-10.398C373.996 795.648 492.308 896 630.232 896zm0-942.946h126.424V136.98c0 13.233 10.555 23.946 24.182 23.946 13.706 0 24.655-10.713 24.655-23.946V29.38h105.472a19.929 19.929 0 0 1 2.048 9.926v86.252c0 116.185-77.903 170.142-153.679 245.996a278.055 278.055 0 0 0-258.441 0c-76.092-75.854-153.68-129.89-153.68-245.996V39.306c0-3.702.71-6.853 1.812-9.925h105.315V136.98a24.418 24.418 0 0 0 25.049 23.946c13.39 0 24.182-10.713 24.182-23.946l.236-183.926h126.425zm0 467.968A197.553 197.553 0 0 1 828.81 618.26c0 108.622-89.482 197.238-198.577 197.238-109.41 0-198.735-88.616-198.735-197.238 0-110.75 90.742-197.238 198.735-197.238zM201.728-46.946h118.469a76.8 76.8 0 0 0-36.313 28.041 99.25 99.25 0 0 0-18.668 58.132v86.331c0 36.155 5.829 70.341 17.487 102.636a222.13 222.13 0 0 0-92.003 21.583c-33.87-33.87-78.769-68.45-97.2-113.27-7.643-18.747-11.66-39.385-11.66-61.755V11.658h70.656v71.68c0 13.233 11.422 24.497 24.813 24.497s24.418-11.264 24.418-24.497V-46.946zm151.946 620.622a127.134 127.134 0 0 1-23.867 9.61 141.863 141.863 0 0 1-142.415-34.58 141.942 141.942 0 0 1-41.275-99.328c0-39.07 15.99-73.728 41.354-98.697 25.994-25.837 60.81-40.882 99.88-40.882 16.304 0 30.798 1.576 45.37 6.696 30.248 36.785 67.584 69.632 101.376 102.4a288.847 288.847 0 0 0-80.423 154.781zm705.063-620.622V83.259c0 13.233 10.477 24.497 24.182 24.497 13.864 0 24.891-11.264 24.891-24.497V11.58h70.814v63.094c0 22.37-4.254 43.008-12.052 61.755a147.298 147.298 0 0 1-35.682 51.83l-61.676 61.44a218.978 218.978 0 0 0-91.53-21.582c11.736-32.296 17.88-66.482 17.88-102.637V39.227c0-20.165-6.616-41.433-18.904-58.132a78.454 78.454 0 0 0-36.786-28.041h118.863zM906.87 573.676a272.069 272.069 0 0 0-80.817-154.781c34.107-32.847 71.365-65.615 101.533-102.479 4.49-1.575 13.155-4.647 17.093-4.647 8.901-1.812 18.039-2.048 28.594-2.048 38.518 0 73.964 15.045 99.406 40.88a136.27 136.27 0 0 1 41.433 98.699c0 38.282-15.675 73.728-41.433 99.328a140.052 140.052 0 0 1-99.406 41.117c-15.518 0-29.696-2.363-43.087-6.538a108.15 108.15 0 0 1-23.316-9.53z" horiz-adv-x="1260"/><glyph glyph-name="xiangmuguanli" unicode="" d="M864 704H480a128 128 0 0 1-128 128H160A128 128 0 0 1 32 704V64A128 128 0 0 1 160-64h704A128 128 0 0 1 992 64v512a128 128 0 0 1-128 128zm-704 64h192a64 64 0 0 0 64-64H96a64 64 0 0 0 64 64zM928 64a64 64 0 0 0-64-64H160a64 64 0 0 0-64 64v576h768a64 64 0 0 0 64-64V64zM711.872 388.352h-1.92c-32.128 0-58.24 27.648-58.24 61.696 0 11.2 5.056 23.488 5.056 23.552a28.8 28.8 0 0 1-8.896 33.728l-.576.384-56 33.024-.576.256a28.48 28.48 0 0 1-31.744-6.72c-6.848-7.488-28.416-26.88-45.888-26.88-17.472 0-39.232 19.776-46.08 27.392A28.416 28.416 0 0 1 446.016 544a25.472 25.472 0 0 1-10.624-2.24l-.64-.256-57.984-33.728-.576-.384a28.928 28.928 0 0 1-8.96-33.792c0-.128 5.056-12.352 5.056-23.552 0-34.048-26.112-61.696-58.24-61.696h-1.92c-9.408.192-17.024-8.448-19.456-22.016-.192-1.088-4.672-26.496-4.672-46.528s4.48-45.44 4.672-46.528c2.432-13.376 9.856-22.08 19.072-22.08h2.24c32.128 0 58.24-27.648 58.24-61.696 0-11.2-5.056-23.488-5.056-23.552a28.928 28.928 0 0 1 8.896-33.728l.512-.384 54.976-32.576.576-.256a25.408 25.408 0 0 1 10.816-2.304 28.352 28.352 0 0 1 20.992 9.344c6.464 7.36 28.864 28.544 46.848 28.544s40.128-21.056 47.104-29.12a27.904 27.904 0 0 1 31.744-7.296l.64.256 56.896 33.344.64.384a29.056 29.056 0 0 1 8.896 33.728c0 .064-5.056 12.352-5.056 23.552 0 34.048 26.112 61.696 58.24 61.696h1.92c9.344-.192 17.024 8.512 19.456 22.08.256 1.152 4.736 26.624 4.736 46.592s-4.48 45.44-4.672 46.528c-2.432 13.568-10.048 22.208-19.456 22.016zm-42.816-101.696c-36.16-1.92-65.088-33.92-65.088-72.96 0-12.992 4.736-25.472 5.76-28.032l-43.136-25.344-.128-.064c-.64 0-1.216.256-1.344.448a121.088 121.088 0 0 1-16.064 15.104c-13.44 10.624-26.176 16-38.016 16-11.712 0-24.384-5.248-37.76-15.68-8.96-6.976-15.168-14.016-15.936-14.848a3.392 3.392 0 0 0-1.344-.384h-.128l-41.664 24.768a80.64 80.64 0 0 1 5.824 28.096c0 38.976-28.864 70.976-65.088 72.96a222.72 222.72 0 0 0-3.392 33.088c0 12.928 2.816 30.208 3.328 33.216 36.224 1.984 65.152 33.984 65.152 73.024 0 12.992-4.736 25.408-5.76 28.032l43.968 25.664h.128c.768 0 1.408-.256 1.6-.448.768-.768 6.912-7.552 15.872-14.336 13.12-9.984 25.6-15.04 37.056-15.04 11.328 0 23.68 4.992 36.8 14.784 8.96 6.656 15.04 13.312 15.808 14.016a3.008 3.008 0 0 0 1.6.448h.128l42.496-25.088c-1.024-2.56-5.76-15.104-5.76-28.096 0-38.976 28.864-70.976 65.088-73.024.576-3.072 3.392-20.224 3.392-33.152 0-12.864-2.816-30.144-3.392-33.152zM448.768 320a64.384 63.232 90 1 1 126.464 0 64.384 63.232 90 1 1-126.464 0z" horiz-adv-x="1024"/><glyph glyph-name="shuju" unicode="" d="M938.667 0H85.333v768h853.334V0zm-768 85.333h682.666v597.334H170.667V85.333zm369.066 21.334l-89.6 349.866-85.333-115.2H170.667v85.334h151.466l166.4 226.133L573.867 320 640 426.667h213.333v-85.334h-166.4z" horiz-adv-x="1024"/></font>
</defs>
</svg>
